<svg id="Camada_1" data-name="Camada 1" xmlns="http://www.w3.org/2000/svg" viewBox="0 0 209.63 50.79"><defs><style>.cls-1{fill:#e50914;}</style></defs><title>logo</title><path class="cls-1" d="M5.33,12.79H13q1.73,18.62,3.38,36.45l.14,0q2-18.63,4-36.42h8.71q1.72,17,3.43,33.2l.14,0q1.94-16.91,3.9-33.17h6.89q-2.82,20.45-5.63,42-4.94,1.07-9.86,2.3-1.66-14.48-3.35-29.55h-.14Q22.66,42.93,20.77,59q-5.22,1.43-10.41,3Q7.9,38.17,5.33,12.79Z" transform="translate(-5.33 -12.79)"/><path class="cls-1" d="M47.64,12.79h8q-.25,19.34-.5,38.69-4,.65-8,1.41Z" transform="translate(-5.33 -12.79)"/><path class="cls-1" d="M61.57,12.79h8q-.19,15.72-.37,31.44,6.6-.69,13.23-1.16c0,1.69,0,3.37,0,5Q71.69,49,61.09,50.55Z" transform="translate(-5.33 -12.79)"/><path class="cls-1" d="M86.53,12.79h8q-.09,14.81-.17,29.62c4.43-.17,8.85-.28,13.28-.3V47q-10.69.07-21.36.84Q86.39,30.31,86.53,12.79Z" transform="translate(-5.33 -12.79)"/><path class="cls-1" d="M111.49,12.79h8l.12,34.32q-4.05-.11-8.08-.13Q111.5,29.9,111.49,12.79Z" transform="translate(-5.33 -12.79)"/><path class="cls-1" d="M125.42,12.79h21.12c0,1.72,0,3.45.05,5.17q-6.57-.11-13.15-.17c0,3.25.05,6.5.08,9.75,3.45.11,6.9.23,10.34.38l.06,5.12c-3.45-.19-6.91-.36-10.36-.5l.12,15.26c-2.69-.19-5.38-.34-8.07-.47Q125.51,30.07,125.42,12.79Z" transform="translate(-5.33 -12.79)"/><path class="cls-1" d="M150.38,12.79h8q.21,16.16.41,32.32,6.6.82,13.16,1.86c0,1.9,0,3.8.07,5.7q-10.55-2-21.19-3.24Q150.6,31.12,150.38,12.79Z" transform="translate(-5.33 -12.79)"/><path class="cls-1" d="M175.34,12.79h8q.24,21.14.47,42.28c-2.64-.58-5.29-1.14-7.95-1.66Z" transform="translate(-5.33 -12.79)"/><path class="cls-1" d="M196.48,35Q192,23.33,187.53,12.79H196q2.75,7.32,5.46,15.09l.14,0q2.7-7.32,5.43-15.11h7.54q-4.38,12.38-8.68,23.45C208.92,44.86,212,54,215,63.58q-4.11-1.34-8.23-2.56-2.88-9.24-5.81-17.88l-.14,0q-2.9,7.58-5.77,14.65c-2.48-.64-5-1.26-7.47-1.84C190.51,49.29,193.49,42.33,196.48,35Z" transform="translate(-5.33 -12.79)"/></svg>